# xmcd CD database file
#
# Track frame offsets:
#	150
#	13860
#	32512
#	58935
#	89617
#	99067
#	119257
#	139792
#	158975
#	183975
#	208267
#	228150
#	245870
#	270440
#
# Disc length: 3849 seconds
#
# Revision: 1
# Processed by: cddbd v1.5.2PL0 Copyright (c) Steve Scherf et al.
# Submitted via: CDex 1.51
#
DISCID=bf0f070e
DTITLE=Duke Ellington - Piano in the Background  (Duke Ellington and son Orchestre 1960-1961)
DYEAR=1961
DGENRE=Jazz
TTITLE0=Happy Go Lucky Local
TTITLE1=What Am I Here For
TTITLE2=Medley - Kinda Dukish-Rockin' In Rhythm 
TTITLE3=Perdido
TTITLE4=I'm Beginning To See The Light
TTITLE5=Mid-Riff
TTITLE6=It Don't Mean A Thing  (If It Ain't Got That Swing)
TTITLE7=Main Stem
TTITLE8=Take The ''A'' Train
TTITLE9=Lullaby Of Birdland 
TTITLE10=The Wailer 
TTITLE11=Dreamy Sort Of Thing
TTITLE12=Lullaby Of Birdland  (alternate take) 
TTITLE13=Harlem Air Shaft
EXTD=YEAR: 1961
EXTT0=
EXTT1=
EXTT2=
EXTT3=
EXTT4=
EXTT5=
EXTT6=
EXTT7=
EXTT8=
EXTT9=
EXTT10=
EXTT11=
EXTT12=
EXTT13=
PLAYORDER=
